<svg id="Ebene_1" data-name="Ebene 1" xmlns="http://www.w3.org/2000/svg" viewBox="0 0 52 52"><defs><style>.cls-1{fill:#999}</style></defs><title>Hammer</title><path class="cls-1" d="M50.2 23.56l-2.61-3.22a2.37 2.37 0 0 0-.17-.21 4.4 4.4 0 0 0-2.56-.77 3.68 3.68 0 0 0-.56-.74 3.82 3.82 0 0 0-1.8-1 1.23 1.23 0 0 1-.58-.31l-9-9a1.21 1.21 0 0 1-.36-1 4.06 4.06 0 0 0-.94-3.53 3.13 3.13 0 0 0-.48-.39L31 3.28a3.34 3.34 0 0 0-.48-.28h-.09a3.84 3.84 0 0 0-.59-.17 4.61 4.61 0 0 0-.71-.09l-1.34-1.07c-1.88-1.59-6-.28-9.27 3s-4.61 7.38-3 9.27l.84 1.06a1.24 1.24 0 0 1 .25.63 4 4 0 0 0 .23.94v.08a3.33 3.33 0 0 0 .24.46l.06.11a3.13 3.13 0 0 0 .39.48 4.06 4.06 0 0 0 3.53.94 1.21 1.21 0 0 1 1 .36l3 3.07-23 23.12a1.19 1.19 0 0 0 0 1.68l3.29 3.29a1.19 1.19 0 0 0 1.68 0L30 27l1.11 1.11a1.23 1.23 0 0 1 .31.58 3.82 3.82 0 0 0 1 1.8 3.68 3.68 0 0 0 .74.56c0 .83-.25 1.53.25 2l.19.19 2.84 2.87c1.88 1.59 6.88 0 10.18-3.3s5.16-7.36 3.58-9.25z"/></svg>