<svg width="29" height="25" viewBox="0 0 29 25" xmlns="http://www.w3.org/2000/svg"><title>Shape</title><path d="M25.465 2.876c-1.228-1.2-2.926-1.8-5.093-1.8-.6 0-1.21.104-1.835.312a7.425 7.425 0 0 0-1.74.842c-.538.353-1 .684-1.386.994-.382.31-.75.638-1.1.986a13.413 13.413 0 0 0-1.1-.986c-.388-.31-.85-.64-1.386-.994a7.43 7.43 0 0 0-1.74-.842 5.787 5.787 0 0 0-1.836-.312c-2.166 0-3.864.6-5.092 1.8-1.228 1.2-1.842 2.863-1.842 4.99 0 .65.114 1.316.34 2.003.228.68.487 1.27.777 1.75.29.484.62.955.987 1.415.367.46.636.775.805.95.17.173.3.3.4.376l9.05 8.737a.868.868 0 0 0 .64.26.87.87 0 0 0 .638-.26l9.04-8.706c2.215-2.213 3.322-4.39 3.322-6.53 0-2.125-.615-3.79-1.844-4.99z" stroke="#B33E63" stroke-width="2" fill="#B33E63" fill-rule="evenodd"/></svg>