<svg width="300" height="300" viewBox="-5 -5 50 50" xmlns="http://www.w3.org/2000/svg"><title>Auctionata_Supersign</title><g fill="none" fill-rule="evenodd" opacity=".103"><path d="M-10-10h60v60h-60z"/><path d="M20.006 39.052c-10.522 0-19.08-8.56-19.08-19.08C.926 9.45 9.483.89 20.006.89c10.52 0 19.08 8.56 19.08 19.08 0 10.522-8.56 19.082-19.08 19.082zm0-38.99C9.026.06.096 8.99.096 19.97c0 10.977 8.93 19.91 19.91 19.91 10.978 0 19.91-8.933 19.91-19.91 0-10.98-8.932-19.91-19.91-19.91z" fill="#000105"/><path d="M30.514 29.64l-4.39-10.765-5.85-14.548h-.11L14.477 17.79h-4.77l5.63-12.772C9.027 7 4.45 12.895 4.45 19.858c0 2.393.542 4.66 1.508 6.684 1.636-3.3 3.123-3.704 5.8-3.71l9.784-.002 1.758 4.26-10.178.008c-2.616-.004-2.517.277-3.832 3.164-.066.145-.16.353-.272.605a15.5 15.5 0 0 0 10.988 4.546c4.3 0 8.192-1.745 11.008-4.566l-.5-1.207m3.73-3.515a15.505 15.505 0 0 0 1.317-6.267c0-6.706-4.24-12.42-10.19-14.605l8.876 20.872" fill="#000105"/></g></svg>