<svg width="21" height="22" viewBox="0 0 21 22" xmlns="http://www.w3.org/2000/svg"><title>Add to Calendar</title><path d="M20.517 3.534a1.476 1.476 0 0 0-1.08-.457h-1.538V1.923c0-.529-.188-.981-.564-1.358A1.85 1.85 0 0 0 15.978 0h-.768c-.529 0-.98.188-1.357.565-.376.377-.564.83-.564 1.358v1.154h-4.61V1.923c0-.529-.189-.981-.565-1.358A1.85 1.85 0 0 0 6.757 0h-.768c-.529 0-.981.188-1.357.565-.376.377-.565.83-.565 1.358v1.154H2.531c-.417 0-.777.152-1.081.457a1.48 1.48 0 0 0-.456 1.082V20c0 .417.152.777.456 1.082.304.305.664.457 1.08.457h16.906c.416 0 .777-.152 1.08-.457A1.48 1.48 0 0 0 20.973 20V4.616a1.48 1.48 0 0 0-.456-1.082zM5.988 20H2.531v-3.46h3.457V20zm0-4.23H2.531v-3.847h3.457v3.846zm0-4.616H2.531V7.693h3.457v3.461zm-.27-5.499a.37.37 0 0 1-.114-.27V1.923a.37.37 0 0 1 .114-.27.369.369 0 0 1 .27-.114h.769c.104 0 .194.038.27.114a.37.37 0 0 1 .114.27v3.462a.37.37 0 0 1-.114.27.369.369 0 0 1-.27.114h-.768a.369.369 0 0 1-.27-.114zM10.6 20H6.757v-3.46h3.842V20zm0-4.23H6.757v-3.847h3.842v3.846zm0-4.616H6.757V7.693h3.842v3.461zM15.21 20h-3.841v-3.46h3.842V20zm0-4.23h-3.841v-3.847h3.842v3.846zm0-4.616h-3.841V7.693h3.842v3.461zm-.27-5.499a.37.37 0 0 1-.113-.27V1.923a.37.37 0 0 1 .114-.27.37.37 0 0 1 .27-.114h.768a.37.37 0 0 1 .27.114.37.37 0 0 1 .114.27v3.462a.37.37 0 0 1-.114.27.369.369 0 0 1-.27.114h-.768a.369.369 0 0 1-.27-.114zM19.437 20h-3.458v-3.46h3.458V20zm0-4.23h-3.458v-3.847h3.458v3.846zm0-4.616h-3.458V7.693h3.458v3.461z" fill="#F1F1F1" fill-rule="evenodd"/></svg>