<svg width="20" height="20" viewBox="0 0 20 20" xmlns="http://www.w3.org/2000/svg"><title>icon-phone</title><path d="M18.878 14.744a33.61 33.61 0 0 0-.767-.426c-.33-.18-.63-.346-.9-.497-.27-.15-.52-.295-.76-.44a17.807 17.807 0 0 0-.353-.245 3.984 3.984 0 0 0-.505-.305.926.926 0 0 0-.404-.1c-.19 0-.426.134-.71.404s-.545.563-.782.88c-.236.318-.487.612-.752.882s-.48.404-.652.404a.966.966 0 0 1-.32-.07 3.252 3.252 0 0 1-.29-.12c-.067-.035-.18-.1-.34-.2a9.376 9.376 0 0 0-.27-.165c-1.3-.72-2.41-1.543-3.34-2.47-.927-.93-1.75-2.042-2.47-3.34a8.03 8.03 0 0 0-.165-.27 5.114 5.114 0 0 1-.198-.34 3.082 3.082 0 0 1-.12-.292.962.962 0 0 1-.073-.32c0-.17.135-.387.405-.653s.563-.517.88-.753c.318-.237.61-.497.88-.78.27-.286.406-.522.406-.71a.927.927 0 0 0-.1-.406 3.943 3.943 0 0 0-.305-.5 18.4 18.4 0 0 0-.25-.356 44.398 44.398 0 0 1-.936-1.66c-.18-.332-.322-.588-.426-.768C4.925.46 4.675.1 4.504.042A.795.795 0 0 0 4.205 0c-.256 0-.59.047-1.002.142A5.632 5.632 0 0 0 2.23.44c-.473.2-.975.777-1.506 1.733C.24 3.063 0 3.943 0 4.815c0 .256.017.504.05.746s.092.518.177.82c.086.304.154.53.206.676.052.146.15.41.29.788.143.38.23.61.257.697a12.87 12.87 0 0 0 1.18 2.486c.747 1.212 1.767 2.464 3.06 3.757 1.293 1.293 2.545 2.313 3.757 3.06.73.456 1.558.85 2.486 1.18.085.03.317.114.696.256.375.14.64.24.784.29.147.053.372.12.675.207.303.085.576.144.817.177s.49.05.745.05c.87 0 1.752-.24 2.642-.723.956-.53 1.534-1.032 1.733-1.505a5.65 5.65 0 0 0 .298-.972c.095-.412.142-.746.142-1.002a.793.793 0 0 0-.043-.3c-.056-.17-.416-.42-1.08-.75z" fill="#2B9CC3" fill-rule="evenodd"/></svg>