<svg width="107" height="96" viewBox="0 0 107 96" xmlns="http://www.w3.org/2000/svg" xmlns:xlink="http://www.w3.org/1999/xlink"><title>mail</title><defs><path id="a" d="M.02 38.18h103.69V.565H.02V38.18z"/><path id="c" d="M100.52.376H.352v57.37H100.52z"/></defs><g fill="none" fill-rule="evenodd"><g transform="translate(1.54 57.667)"><mask id="b" fill="#fff"><use xlink:href="#a"/></mask><path d="M48.34 1.6L3.035 31.905c-2.952 1.972-4.966 6.278.01 6.278h97.64c4.978 0 2.963-4.306.01-6.278L55.392 1.6c-2.066-1.38-4.985-1.383-7.05 0" fill="#D6D6D6" mask="url(#b)"/></g><g transform="translate(2.97 .292)"><mask id="d" fill="#fff"><use xlink:href="#c"/></mask><path d="M46.954.95c1.152-.768 5.798-.768 6.952 0L98.02 29.847c2.333 1.547 3.976 2.71.5 5.08L66.354 55.844c-2.27 1.547-3.585 2.057-4.78 1.863-1.56-.525-3.052-2.15-6.145-4.127-1.567-1.002-3.287-1.445-5-1.375-1.72-.07-3.44.373-5.006 1.375-3.093 1.977-4.584 3.602-6.143 4.127-1.194.194-2.51-.316-4.78-1.863L2.342 34.927c-3.13-2.134-2.17-3.312.156-4.855L46.952.95z" fill="#D6D6D6" mask="url(#d)"/></g><path d="M36.46 63.507c1.394-.92 1.394-2.396 0-3.314L4.463 39.686C2.127 38.19 0 38.856 0 40.666v43.12c0 1.813 2.328 2.39 4.463.826L36.46 63.507zm33.89 0c-1.394-.92-1.394-2.396 0-3.314l31.997-20.507c2.336-1.496 4.463-.83 4.463.98v43.12c0 1.813-2.327 2.39-4.463.826L70.35 63.507z" fill="#D6D6D6"/></g></svg>