<svg width="20" height="20" viewBox="0 0 20 20" xmlns="http://www.w3.org/2000/svg"><title>printing1</title><path d="M19.292 8.88a2.187 2.187 0 0 0-1.624-.694H16.9V5.04c0-.328-.08-.688-.24-1.08-.16-.395-.35-.706-.573-.935l-1.822-1.868c-.223-.23-.527-.426-.91-.59C12.97.403 12.62.32 12.3.32H4.25c-.32 0-.59.115-.815.344-.223.23-.335.508-.335.836v6.685h-.767c-.63 0-1.172.23-1.624.694a2.3 2.3 0 0 0-.68 1.66v5.112c0 .107.04.2.112.277a.364.364 0 0 0 .27.116H3.1v1.966c0 .327.11.606.335.835.224.23.495.344.815.344h11.502c.32 0 .59-.114.815-.343.223-.23.335-.507.335-.834V16.05h2.684a.364.364 0 0 0 .27-.116.383.383 0 0 0 .113-.277v-5.112a2.3 2.3 0 0 0-.68-1.665zm-3.924 8.743H4.632v-3.145h10.736v3.145zm0-7.864H4.632V1.89H12.3v1.97c0 .328.112.606.336.836.224.23.495.344.815.344h1.92v4.72zm2.84 1.34a.728.728 0 0 1-.54.23.728.728 0 0 1-.54-.236.766.766 0 0 1-.227-.553c0-.212.08-.396.23-.552a.728.728 0 0 1 .54-.233c.21 0 .39.077.54.232.15.155.23.34.23.552a.765.765 0 0 1-.23.552z" fill="#FFF" fill-rule="evenodd"/></svg>