<svg width="20" height="20" viewBox="0 0 20 20" xmlns="http://www.w3.org/2000/svg"><title>zoom</title><g fill="#353535" fill-rule="evenodd"><path d="M19.525 17.357l-4.11-4.11a8.208 8.208 0 0 0 1.486-4.78 8.287 8.287 0 0 0-.66-3.277 8.43 8.43 0 0 0-1.797-2.696 8.432 8.432 0 0 0-2.7-1.798A8.29 8.29 0 0 0 8.467.03 8.287 8.287 0 0 0 5.19.697a8.43 8.43 0 0 0-2.696 1.798A8.433 8.433 0 0 0 .696 5.19 8.288 8.288 0 0 0 .03 8.466a8.29 8.29 0 0 0 .666 3.277 8.434 8.434 0 0 0 1.797 2.696A8.435 8.435 0 0 0 5.19 16.23a8.288 8.288 0 0 0 3.272.665c1.758 0 3.35-.495 4.78-1.486l4.11 4.1a1.43 1.43 0 0 0 1.08.454c.422 0 .783-.15 1.083-.45.3-.3.45-.66.45-1.083 0-.423-.15-.782-.445-1.077zm-7.267-5.1c-1.05 1.05-2.314 1.577-3.792 1.577-1.477 0-2.74-.525-3.792-1.576C3.624 11.208 3.1 9.944 3.1 8.466c0-1.477.525-2.74 1.575-3.792C5.725 3.624 6.99 3.1 8.465 3.1c1.48 0 2.743.525 3.793 1.575 1.05 1.05 1.576 2.315 1.576 3.792 0 1.478-.525 2.742-1.576 3.792z"/><path d="M11.917 7.7H9.233V5.016a.368.368 0 0 0-.114-.27.368.368 0 0 0-.27-.114h-.77a.368.368 0 0 0-.27.114.368.368 0 0 0-.115.27V7.7h-2.68a.368.368 0 0 0-.27.113.368.368 0 0 0-.115.27v.767a.37.37 0 0 0 .116.27.368.368 0 0 0 .27.113H7.7v2.684c0 .104.038.194.114.27a.37.37 0 0 0 .27.113h.766a.37.37 0 0 0 .27-.113.37.37 0 0 0 .113-.27V9.233h2.684a.37.37 0 0 0 .27-.114.37.37 0 0 0 .113-.27v-.77a.37.37 0 0 0-.113-.27.37.37 0 0 0-.27-.115z"/></g></svg>