<svg width="18" height="15" viewBox="0 0 18 15" xmlns="http://www.w3.org/2000/svg"><title>Fill 112</title><path d="M0 4.987c.25.28.524.537.818.774C2.895 7.42 4.573 8.778 5.81 9.83c.4.344.713.623.965.795.252.194.587.387 1.007.58.42.194.84.302 1.196.302h.042c.357 0 .776-.108 1.196-.3.42-.195.755-.388 1.007-.58.25-.174.588-.453.986-.797 1.212-1.054 2.89-2.41 4.97-4.066A7.03 7.03 0 0 0 18 4.99v9.205a.463.463 0 0 1-.106.28.44.44 0 0 1-.273.107H.38a.437.437 0 0 1-.273-.108.463.463 0 0 1-.105-.28V4.988zM.378.75h17.244c.063 0 .127 0 .17.02a.254.254 0 0 1 .103.11.48.48 0 0 1 .063.106c.02.022.042.065.042.15v.452c0 .474-.19.99-.546 1.57-.356.58-.755 1.054-1.175 1.398a359.853 359.853 0 0 0-4.7 3.808c-.04.022-.19.15-.42.344-.21.193-.4.344-.527.452-.148.107-.315.237-.526.387-.21.128-.42.258-.587.322a1.613 1.613 0 0 1-.502.103 1.61 1.61 0 0 1-.543-.108c-.17-.065-.378-.195-.588-.323-.21-.15-.38-.28-.527-.387-.126-.108-.315-.26-.524-.452-.23-.194-.38-.322-.42-.344a359.772 359.772 0 0 0-4.7-3.808C.566 3.61 0 2.47 0 1.136 0 1.03.042.943.105.856A.432.432 0 0 1 .378.75z" fill="#FFF" fill-rule="evenodd"/></svg>