<svg width="28" height="25" viewBox="0 0 28 25" xmlns="http://www.w3.org/2000/svg"><title>Shape</title><path d="M25.157 2.876c-1.228-1.2-2.926-1.8-5.093-1.8-.6 0-1.21.104-1.835.312a7.425 7.425 0 0 0-1.74.842c-.54.353-1 .684-1.39.994-.388.31-.756.638-1.104.986a13.413 13.413 0 0 0-1.104-.986c-.387-.31-.848-.64-1.385-.994a7.43 7.43 0 0 0-1.74-.842 5.787 5.787 0 0 0-1.837-.312c-2.165 0-3.863.6-5.09 1.8C1.612 4.076 1 5.74 1 7.866c0 .65.114 1.316.34 2.003.228.68.487 1.27.777 1.75.29.484.62.955.987 1.415.367.46.636.775.805.95.17.173.3.3.4.376l9.05 8.737a.868.868 0 0 0 .635.26.87.87 0 0 0 .638-.26l9.04-8.706C25.893 12.18 27 10.005 27 7.865c0-2.125-.614-3.79-1.843-4.99z" stroke-width="2" stroke="#2B9CC3" fill="none"/></svg>